<svg width="68" height="68" viewBox="0 0 68 68" fill="none" xmlns="http://www.w3.org/2000/svg">
<path d="M25.4623 55.76L47.9778 34L25.4623 12.24C24.8486 11.6488 24.0252 11.3257 23.1733 11.3416C22.3214 11.3576 21.5107 11.7113 20.9195 12.325C20.3284 12.9386 20.0052 13.762 20.0212 14.614C20.0371 15.4659 20.3908 16.2766 21.0045 16.8677L38.7412 34L21.0045 51.1511C20.3908 51.7422 20.0371 52.5529 20.0212 53.4049C20.0052 54.2568 20.3284 55.0802 20.9195 55.6939C21.5107 56.3075 22.3214 56.6613 23.1733 56.6772C24.0252 56.6931 24.8486 56.37 25.4623 55.7789V55.76Z" fill="#3E3E3E"/>
</svg>
