<svg width="86" height="93" viewBox="0 0 86 93" fill="none" xmlns="http://www.w3.org/2000/svg">
<g filter="url(#filter0_d)">
<path d="M79.6946 60.064L62.6501 52.0951C61.9219 51.7566 61.1127 51.6853 60.3442 51.8919C59.5757 52.0985 58.8895 52.5718 58.3889 53.2407L50.8406 63.3014C38.9943 57.2082 29.4606 46.8079 23.8752 33.8845L33.0975 25.65C33.7119 25.1049 34.1467 24.3564 34.3361 23.5176C34.5256 22.6788 34.4594 21.7956 34.1476 21.0015L26.8428 2.40742C26.5005 1.55145 25.8952 0.85257 25.1312 0.431303C24.3673 0.0100361 23.4925 -0.107216 22.6577 0.099766L6.83062 4.08421C6.02582 4.28695 5.30778 4.78129 4.79369 5.48654C4.2796 6.1918 3.99981 7.06632 4 7.96739C4 50.5511 35.639 85 74.6132 85C75.4395 85.0006 76.2415 84.6955 76.8883 84.1347C77.5351 83.5738 77.9884 82.7903 78.1743 81.912L81.8267 64.6461C82.0153 63.7311 81.9055 62.7729 81.5163 61.9366C81.1272 61.1003 80.483 60.4381 79.6946 60.064Z" fill="#3E3E3E"/>
</g>
<defs>
<filter id="filter0_d" x="0" y="0" width="85.9167" height="93" filterUnits="userSpaceOnUse" color-interpolation-filters="sRGB">
<feFlood flood-opacity="0" result="BackgroundImageFix"/>
<feColorMatrix in="SourceAlpha" type="matrix" values="0 0 0 0 0 0 0 0 0 0 0 0 0 0 0 0 0 0 127 0" result="hardAlpha"/>
<feOffset dy="4"/>
<feGaussianBlur stdDeviation="2"/>
<feColorMatrix type="matrix" values="0 0 0 0 0 0 0 0 0 0 0 0 0 0 0 0 0 0 0.25 0"/>
<feBlend mode="normal" in2="BackgroundImageFix" result="effect1_dropShadow"/>
<feBlend mode="normal" in="SourceGraphic" in2="effect1_dropShadow" result="shape"/>
</filter>
</defs>
</svg>
