<svg width="23" height="20" viewBox="0 0 23 20" fill="none" xmlns="http://www.w3.org/2000/svg">
<path d="M20.3474 4.88226C20.3614 5.09545 20.3614 5.30868 20.3614 5.52187C20.3614 12.0244 15.8246 19.5168 7.53274 19.5168C4.97816 19.5168 2.60509 18.7096 0.608887 17.3087C0.971844 17.3543 1.32079 17.3696 1.69771 17.3696C3.80555 17.3696 5.74593 16.5929 7.29543 15.2681C5.31319 15.2224 3.65202 13.8061 3.07968 11.8569C3.35889 11.9025 3.63805 11.933 3.93123 11.933C4.33604 11.933 4.74089 11.8721 5.11777 11.7655C3.05179 11.3086 1.50225 9.32896 1.50225 6.9381V6.87721C2.10248 7.24269 2.80051 7.47112 3.5403 7.50154C2.32583 6.61827 1.53018 5.11068 1.53018 3.40509C1.53018 2.4914 1.75349 1.65384 2.14438 0.922867C4.36393 3.90763 7.70023 5.85684 11.4413 6.07007C11.3715 5.70459 11.3296 5.32391 11.3296 4.9432C11.3296 2.23251 13.3398 0.0244141 15.8385 0.0244141C17.1367 0.0244141 18.3093 0.61832 19.1329 1.57771C20.1519 1.36452 21.1291 0.953336 21.9946 0.389898C21.6595 1.53205 20.9476 2.49145 20.0124 3.10054C20.9197 2.99399 21.7992 2.71982 22.6088 2.33915C21.9947 3.31373 21.2269 4.18171 20.3474 4.88226Z" fill="#3E3E3E"/>
</svg>
