<svg width="23" height="22" viewBox="0 0 23 22" fill="none" xmlns="http://www.w3.org/2000/svg">
<path d="M11.6139 5.63357C8.49073 5.63357 5.97153 8.03826 5.97153 11.0195C5.97153 14.0008 8.49073 16.4054 11.6139 16.4054C14.7372 16.4054 17.2564 14.0008 17.2564 11.0195C17.2564 8.03826 14.7372 5.63357 11.6139 5.63357ZM11.6139 14.5211C9.59564 14.5211 7.94564 12.9508 7.94564 11.0195C7.94564 9.08826 9.59073 7.51794 11.6139 7.51794C13.6372 7.51794 15.2822 9.08826 15.2822 11.0195C15.2822 12.9508 13.6322 14.5211 11.6139 14.5211ZM18.8032 5.41326C18.8032 6.11169 18.2139 6.66951 17.4872 6.66951C16.7555 6.66951 16.1711 6.10701 16.1711 5.41326C16.1711 4.71951 16.7604 4.15701 17.4872 4.15701C18.2139 4.15701 18.8032 4.71951 18.8032 5.41326ZM22.5403 6.68826C22.4568 5.00544 22.0541 3.51482 20.7626 2.28669C19.476 1.05857 17.9144 0.674194 16.1514 0.589819C14.3345 0.491382 8.88849 0.491382 7.07153 0.589819C5.31349 0.669507 3.75189 1.05388 2.46037 2.28201C1.16885 3.51013 0.771083 5.00076 0.68269 6.68357C0.579565 8.41794 0.579565 13.6164 0.68269 15.3508C0.766173 17.0336 1.16885 18.5242 2.46037 19.7523C3.75189 20.9804 5.30858 21.3648 7.07153 21.4492C8.88849 21.5476 14.3345 21.5476 16.1514 21.4492C17.9144 21.3695 19.476 20.9851 20.7626 19.7523C22.0492 18.5242 22.4519 17.0336 22.5403 15.3508C22.6434 13.6164 22.6434 8.42263 22.5403 6.68826ZM20.193 17.2117C19.8099 18.1304 19.0684 18.8383 18.101 19.2086C16.6523 19.757 13.2148 19.6304 11.6139 19.6304C10.013 19.6304 6.57064 19.7523 5.12689 19.2086C4.16439 18.8429 3.42287 18.1351 3.03492 17.2117C2.46037 15.8289 2.59296 12.5476 2.59296 11.0195C2.59296 9.49138 2.46528 6.20544 3.03492 4.82732C3.41796 3.90857 4.15948 3.20076 5.12689 2.83044C6.57555 2.28201 10.013 2.40857 11.6139 2.40857C13.2148 2.40857 16.6572 2.28669 18.101 2.83044C19.0635 3.19607 19.805 3.90388 20.193 4.82732C20.7675 6.21013 20.6349 9.49138 20.6349 11.0195C20.6349 12.5476 20.7675 15.8336 20.193 17.2117Z" fill="#3E3E3E"/>
</svg>
