<svg width="40" height="40" viewBox="0 0 40 40" fill="none" xmlns="http://www.w3.org/2000/svg">
<path d="M17.0027 5.26231L18.6985 3.56658C19.4165 2.84857 20.5775 2.84857 21.2879 3.56658L36.137 18.408C36.855 19.126 36.855 20.2871 36.137 20.9975L21.2879 35.8465C20.5699 36.5645 19.4088 36.5645 18.6985 35.8465L17.0027 34.1508C16.2771 33.4252 16.2923 32.2412 17.0333 31.5308L26.2376 22.7619H4.28476C3.26885 22.7619 2.45154 21.9446 2.45154 20.9287V18.4844C2.45154 17.4685 3.26885 16.6512 4.28476 16.6512H26.2376L17.0333 7.88229C16.2847 7.17192 16.2694 5.98796 17.0027 5.26231Z" fill="white"/>
</svg>
